<svg width="171" height="54" viewBox="0 0 171 54" fill="none" xmlns="http://www.w3.org/2000/svg">
<mask id="mask0_2_417" style="mask-type:luminance" maskUnits="userSpaceOnUse" x="0" y="0" width="170" height="54">
<path d="M169.866 0.598145H0.150024V53.5649H169.866V0.598145Z" fill="black"/>
</mask>
<g mask="url(#mask0_2_417)">
<path d="M89.594 13.9061C89.594 15.8148 88.0565 17.3524 86.1478 17.3524C84.2388 17.3524 82.7013 15.8148 82.7013 13.9061C82.7013 11.9974 84.1858 10.4598 86.1478 10.4598C88.1094 10.5129 89.594 12.0504 89.594 13.9061ZM75.3845 20.8517C75.3845 21.1698 75.3845 21.7 75.3845 21.7C75.3845 21.7 73.7411 19.5792 70.2416 19.5792C64.4627 19.5792 59.9557 23.9799 59.9557 30.0771C59.9557 36.1214 64.4094 40.5752 70.2416 40.5752C73.7941 40.5752 75.3845 38.4013 75.3845 38.4013V39.3025C75.3845 39.7266 75.7027 40.0448 76.1268 40.0448H80.4215V20.1094C80.4215 20.1094 76.4979 20.1094 76.1268 20.1094C75.7027 20.1094 75.3845 20.4806 75.3845 20.8517ZM75.3845 33.6295C74.5893 34.7959 72.9988 35.8033 71.0902 35.8033C67.6966 35.8033 65.0987 33.6825 65.0987 30.0771C65.0987 26.4718 67.6966 24.351 71.0902 24.351C72.9459 24.351 74.6423 25.4114 75.3845 26.5248V33.6295ZM83.6028 20.1094H88.6928V40.0448H83.6028V20.1094ZM159.633 19.5792C156.134 19.5792 154.49 21.7 154.49 21.7V10.5129H149.4V40.0448C149.4 40.0448 153.324 40.0448 153.695 40.0448C154.119 40.0448 154.437 39.6736 154.437 39.3025V38.4013C154.437 38.4013 156.081 40.5752 159.58 40.5752C165.359 40.5752 169.866 36.1214 169.866 30.0771C169.866 24.0329 165.359 19.5792 159.633 19.5792ZM158.785 35.7503C156.823 35.7503 155.286 34.7429 154.49 33.5765V26.4718C155.286 25.4114 156.982 24.298 158.785 24.298C162.178 24.298 164.776 26.4188 164.776 30.0241C164.776 33.6295 162.178 35.7503 158.785 35.7503ZM146.749 28.2215V40.0977H141.66V28.8047C141.66 25.5174 140.599 24.1919 137.736 24.1919C136.198 24.1919 134.608 24.9872 133.601 26.1537V40.0448H128.511V20.1094H132.54C132.964 20.1094 133.282 20.4806 133.282 20.8517V21.7C134.767 20.1625 136.729 19.5792 138.69 19.5792C140.917 19.5792 142.773 20.2155 144.258 21.4879C146.06 22.9725 146.749 24.8812 146.749 28.2215ZM116.157 19.5792C112.658 19.5792 111.014 21.7 111.014 21.7V10.5129H105.924V40.0448C105.924 40.0448 109.848 40.0448 110.219 40.0448C110.643 40.0448 110.961 39.6736 110.961 39.3025V38.4013C110.961 38.4013 112.605 40.5752 116.104 40.5752C121.883 40.5752 126.39 36.1214 126.39 30.0771C126.443 24.0329 121.936 19.5792 116.157 19.5792ZM115.309 35.7503C113.347 35.7503 111.809 34.7429 111.014 33.5765V26.4718C111.809 25.4114 113.506 24.298 115.309 24.298C118.702 24.298 121.3 26.4188 121.3 30.0241C121.3 33.6295 118.702 35.7503 115.309 35.7503ZM101.523 19.5792C103.061 19.5792 103.856 19.8443 103.856 19.8443V24.5631C103.856 24.5631 99.6146 23.1316 96.9637 26.1537V40.0977H91.8737V20.1094C91.8737 20.1094 95.7973 20.1094 96.1685 20.1094C96.5926 20.1094 96.9107 20.4806 96.9107 20.8517V21.7C97.8649 20.5866 99.9328 19.5792 101.523 19.5792ZM48.6628 38.2421C48.3976 37.6061 48.1324 36.9167 47.8675 36.3335C47.4431 35.3791 47.019 34.4778 46.6478 33.6295L46.5949 33.5765C42.9365 25.6235 39.0129 17.5645 34.8775 9.61151L34.7185 9.29338C34.2943 8.4981 33.8702 7.64979 33.446 6.80147C32.9158 5.84712 32.3856 4.83972 31.5373 3.88537C29.8406 1.76458 27.4017 0.598145 24.8038 0.598145C22.1528 0.598145 19.7669 1.76458 18.0172 3.77933C17.2219 4.73367 16.6387 5.74107 16.1085 6.69543C15.6843 7.54374 15.2602 8.39206 14.836 9.18737L14.677 9.50546C10.5945 17.4584 6.61798 25.5174 2.95961 33.4704L2.90659 33.5765C2.53545 34.4248 2.11129 35.3261 1.68714 36.2805C1.42203 36.8637 1.15693 37.4998 0.891836 38.1891C0.20258 40.1511 -0.00949931 42.0068 0.255599 43.9154C0.838818 47.892 3.48981 51.2322 7.14816 52.7167C8.5267 53.2997 9.95823 53.5649 11.4428 53.5649C11.8669 53.5649 12.3971 53.512 12.8213 53.459C14.5709 53.2468 16.3736 52.6637 18.1233 51.6563C20.2971 50.4366 22.3649 48.6872 24.6977 46.1422C27.0306 48.6872 29.1514 50.4366 31.2722 51.6563C33.0218 52.6637 34.8245 53.2468 36.5742 53.459C36.9983 53.512 37.5284 53.5649 37.9528 53.5649C39.4374 53.5649 40.9219 53.2997 42.2472 52.7167C45.9585 51.2322 48.5565 47.8386 49.1399 43.9154C49.564 42.0597 49.3521 40.2041 48.6628 38.2421ZM24.7508 40.9993C21.8877 37.3939 20.032 34.0006 19.3957 31.1375C19.1306 29.9181 19.0776 28.8577 19.2367 27.9033C19.3427 27.055 19.6608 26.3127 20.085 25.6765C21.0924 24.245 22.789 23.3436 24.7508 23.3436C26.7125 23.3436 28.4621 24.1919 29.4165 25.6765C29.8406 26.3127 30.1588 27.055 30.2648 27.9033C30.4239 28.8577 30.3709 29.9711 30.1057 31.1375C29.4695 33.9476 27.6138 37.3409 24.7508 40.9993ZM45.9056 43.4913C45.5344 46.2481 43.6788 48.6342 41.0808 49.6943C39.8085 50.2247 38.4299 50.3836 37.0513 50.2247C35.7258 50.0654 34.4003 49.6413 33.0218 48.8461C31.1131 47.7857 29.2044 46.1422 26.9776 43.7032C30.4769 39.4088 32.5977 35.4852 33.393 31.9858C33.7641 30.3423 33.8171 28.8577 33.6581 27.4792C33.446 26.1537 32.9688 24.9342 32.2265 23.8738C30.5829 21.4879 27.8259 20.1094 24.7508 20.1094C21.6756 20.1094 18.9186 21.5409 17.275 23.8738C16.5327 24.9342 16.0555 26.1537 15.8434 27.4792C15.6313 28.8577 15.6843 30.3953 16.1085 31.9858C16.9038 35.4852 19.0776 39.4618 22.5239 43.7561C20.3501 46.1952 18.3884 47.8386 16.4797 48.8991C15.1011 49.6943 13.7756 50.1188 12.4501 50.2777C11.0186 50.4366 9.6401 50.2247 8.42065 49.7476C5.82267 48.6872 3.96699 46.3011 3.59585 43.5443C3.43679 42.2186 3.54283 40.8934 4.07304 39.4088C4.23208 38.8784 4.49717 38.3484 4.76227 37.712C5.13344 36.8637 5.55758 35.9623 5.98175 35.061L6.03476 34.955C9.69314 27.055 13.6166 18.996 17.6991 11.1491L17.8582 10.831C18.2823 10.0357 18.7065 9.18737 19.1306 8.39206C19.5548 7.54374 20.032 6.74843 20.6152 6.05917C21.7286 4.78671 23.2132 4.09745 24.8568 4.09745C26.5004 4.09745 27.985 4.78671 29.0984 6.05917C29.6816 6.74843 30.1588 7.54374 30.5829 8.39206C31.0071 9.18737 31.4313 10.0357 31.8554 10.831L32.0144 11.1491C36.044 19.049 39.9674 27.1081 43.6258 35.008V35.061C44.0499 35.9093 44.421 36.8637 44.8451 37.712C45.1103 38.3484 45.3755 38.8784 45.5344 39.4088C45.9585 40.7871 46.1178 42.1127 45.9056 43.4913Z" fill="#fff"/>
</g>
</svg>
